# xmcd
#
# Track frame offsets:
#	150
#	19178
#	36993
#	53633
#	71158
#	86145
#	97318
#	116863
#	130991
#	145963
#	159836
#	174641
#
# Disc length: 2538 seconds
#
# Revision: 0
# Processed by: cddbd v1.4PL0 Copyright (c) Steve Scherf et al.
# Submitted via: dBpowerAMP V4.0
#
DISCID=b009e80c
DTITLE=Various Artist - Country's Best
DYEAR=2000
DGENRE=Country
TTITLE0=Breathe
TTITLE1=Amazed
TTITLE2=That Don't Impress me Much
TTITLE3=Friends In Low Places
TTITLE4=This Kiss
TTITLE5=Chattahoochee
TTITLE6=I Swear
TTITLE7=I Like It, I Love It
TTITLE8=Boot Scootin Boogie
TTITLE9=Love Without End Amen
TTITLE10=Love In The First Degree
TTITLE11=Forever and Ever, Amen
EXTD=Country's Best
EXTT0=
EXTT1=
EXTT2=
EXTT3=
EXTT4=
EXTT5=
EXTT6=
EXTT7=
EXTT8=
EXTT9=
EXTT10=
EXTT11=
PLAYORDER=
